<?xml version="1.0" ?><!DOCTYPE svg  PUBLIC '-//W3C//DTD SVG 1.1//EN'  'http://www.w3.org/Graphics/SVG/1.1/DTD/svg11.dtd'><svg height="167px" style="enable-background:new 0 0 167 167;" version="1.1" viewBox="0 0 167 167" width="167px" xml:space="preserve" xmlns="http://www.w3.org/2000/svg" xmlns:xlink="http://www.w3.org/1999/xlink"><style type="text/css">
<![CDATA[
	.st0{fill:#EF3E42;}
	.st1{fill:#54B948;}
	.st2{fill:#FFC425;}
	.st3{fill:#FFFFFF;}
	.st4{fill:none;}
]]>
</style><defs/><polygon class="st1" points="18.3,16.3 152.2,16.3 152.2,150.2 18.3,150.2 18.3,16.3 "/><path class="st3" d="M65,115.8h52.6V50.6H65v-13h65.6v91.2H65V115.8L65,115.8L65,115.8z M84,83.4L63.4,104l-13.2,0l12.7-12.7  c0,0,2.5-2.9,4-2.9l-34.4,0V78.4l34.4,0c-1.5,0-4-2.9-4-2.9L50.2,62.8l13.2,0L84,83.4L84,83.4L84,83.4z"/><path d="M161.2,6.8c0.3,0,0.6,0.3,0.6,0.6v151.8c0,0.3-0.3,0.6-0.6,0.6H9.4c-0.3,0-0.6-0.3-0.6-0.6V7.3c0-0.3,0.3-0.6,0.6-0.6H161.2  L161.2,6.8z M160.6,7.9H10v150.6h150.6V7.9L160.6,7.9z"/><rect class="st4" height="167" id="_x3C_Slice_x3E__48_" width="167"/></svg>